inDegrees=no
num_controls=7
num_derivatives=13
num_iterations=130
num_multipliers=7
num_parameters=0
num_slacks=7
num_states=26
objective=0.516794
objective_accelerations=0.039912
objective_balance=0.002205
objective_effort=0.043861
objective_height=0.419186
objective_ligament=0.011630
solver_duration=1719.410861
status=Solve_Succeeded
success=true
DataType=double
version=3
OpenSimVersion=4.5
endheader
time	/jointset/ground_pelvis/pelvis_tilt/value	/jointset/ground_pelvis/pelvis_tx/value	/jointset/ground_pelvis/pelvis_ty/value	/jointset/hip_l/hip_flexion_l/value	/jointset/hip_l/hip_adduction_l/value	/jointset/hip_l/hip_rotation_l/value	/jointset/back/lumbar_extension/value	/jointset/patellofemoral_l/patellar_flexion_l/value	/jointset/knee_l/knee_flexion_l/value	/jointset/knee_l/knee_adduction_l/value	/jointset/knee_l/knee_rotation_l/value	/jointset/ankle_l/ankle_angle_l/value	/jointset/subtalar_l/subtalar_angle_l/value	/jointset/ground_pelvis/pelvis_tilt/speed	/jointset/ground_pelvis/pelvis_tx/speed	/jointset/ground_pelvis/pelvis_ty/speed	/jointset/hip_l/hip_flexion_l/speed	/jointset/hip_l/hip_adduction_l/speed	/jointset/hip_l/hip_rotation_l/speed	/jointset/back/lumbar_extension/speed	/jointset/patellofemoral_l/patellar_flexion_l/speed	/jointset/knee_l/knee_flexion_l/speed	/jointset/knee_l/knee_adduction_l/speed	/jointset/knee_l/knee_rotation_l/speed	/jointset/ankle_l/ankle_angle_l/speed	/jointset/subtalar_l/subtalar_angle_l/speed	/forceset/tau_hip_flexion_l	/forceset/tau_hip_adduction_l	/forceset/tau_hip_rotation_l	/forceset/tau_knee_flexion_l	/forceset/tau_ankle_angle_l	/forceset/tau_subtalar_angle_l	/forceset/tau_lumbar_extension	lambda_cid13_p0	lambda_cid13_p1	lambda_cid13_p2	lambda_cid13_p3	lambda_cid13_p4	lambda_cid13_p5	lambda_cid14_p0	/jointset/ground_pelvis/pelvis_tilt/accel	/jointset/ground_pelvis/pelvis_tx/accel	/jointset/ground_pelvis/pelvis_ty/accel	/jointset/hip_l/hip_flexion_l/accel	/jointset/hip_l/hip_adduction_l/accel	/jointset/hip_l/hip_rotation_l/accel	/jointset/back/lumbar_extension/accel	/jointset/patellofemoral_l/patellar_flexion_l/accel	/jointset/knee_l/knee_flexion_l/accel	/jointset/knee_l/knee_adduction_l/accel	/jointset/knee_l/knee_rotation_l/accel	/jointset/ankle_l/ankle_angle_l/accel	/jointset/subtalar_l/subtalar_angle_l/accel	gamma_cid13_p0	gamma_cid13_p1	gamma_cid13_p2	gamma_cid13_p3	gamma_cid13_p4	gamma_cid13_p5	gamma_cid14_p0
0.5	-0.1200439253492506	-0.05634100649418554	0.8241440825725597	0.8923933905244347	-0.3241083657302438	-0.1222411924099672	-0.7790125621572592	0.7890543528992946	0.7890543528993181	-0.1096914601470272	-0.1745175465415338	0.07076289010901191	-0.007453621250048417	-0.2061400494212564	-0.2070491446537094	-0.3405805633677121	1.495915851973453	-0.04170444578395036	0.4597950023967695	-0.8423401024310527	1.436373978516146	1.43637397851614	0.1279806610782753	0.0003408811343569072	0.2374034708365804	0.02961046180119365	-0.2820367850674945	0.02385770555294296	-0.003271365330772272	-0.2113791020954177	0.1167961774291137	0.04615209716696103	0.3302212371759973	-7.166806886498952	-20.19468592153003	4.370909513854437	-9.676384685689669	-703.5660251009923	-73.97178153675473	-14.87463913323337	0.2874159027653324	0.6564190578362046	-0.1131864701414288	-1.451361044613051	0.2106756981457929	-0.2804527954425151	1.713806989004448	-1.112109747786192	-1.112109747786188	-0.3527412307174704	0.05520289527873584	0.0003188063693950139	0.2300428494079326	-4.868803625144829e-08	-4.995931778863041e-07	3.455788735350121e-08	-6.192461880324004e-08	-7.439450248726534e-08	-5.007504515462962e-08	-7.659656773712413e-08
0.51	-0.1220907255825532	-0.0583785722631783	0.8207333650050549	0.9072778499997067	-0.3245151370477627	-0.1176591023100267	-0.7873493202177831	0.8033602579926872	0.8033602579927017	-0.1084291356856158	-0.1745126711875325	0.0731362860601452	-0.007146474307199261	-0.2031931792447056	-0.2004542523194525	-0.3414856951449979	1.480770001404374	-0.0396389565771559	0.4565012108588872	-0.824919730041636	1.42459278414128	1.424592784141276	0.124538514748454	0.0005959483986155769	0.2372296361837207	0.03181871925849587	-0.2884868861550219	0.02427624075135483	-0.003485816382114512	-0.2139233058269188	0.1170839960364955	0.0465072388597592	0.3364295904665102	-7.300426078670381	-20.27658518846142	4.328061727614442	-9.708964550752418	-707.5293322536676	-73.83203721987101	-14.3486213152955	0.3023414484537835	0.6624764200622095	-0.06760265699636687	-1.577107400817751	0.2061672665648763	-0.372181873188804	1.769919308881906	-1.243247379694898	-1.243247379694615	-0.3318918969467999	0.004945046863871169	-0.03316388772356021	0.2162539348037453	-6.825983705010393e-08	-3.965365339067662e-07	1.986178370051094e-07	-3.272836809564078e-08	-8.485588144153815e-08	-3.850657606320735e-08	-8.43781526647977e-08
0.52	-0.1241072533394162	-0.06034989868906034	0.817315910894682	0.9220046689017364	-0.3249009171262801	-0.1131136180335377	-0.7955091211654192	0.8175419265228319	0.8175419265228917	-0.1071996207999914	-0.1745063878799759	0.0755065578074256	-0.006817237441594569	-0.2000855541339822	-0.1938012760315683	-0.3419278719412697	1.464387737324806	-0.03750619798560784	0.4524738377118871	-0.8069486798533467	1.411526665872091	1.411526665872088	0.1214187459053332	0.0006224718574558025	0.2367786300664632	0.03402844635229104	-0.2949369872425815	0.02469477594971877	-0.003700267432877027	-0.2164675095584595	0.1173718146438542	0.04686238055248067	0.3426379437570115	-7.437387493043863	-20.35876909466844	4.286253023182863	-9.766753206375657	-711.5660431852136	-73.71433478393251	-13.81968015402906	0.3195668895999823	0.6680358485615839	-0.02059547393867346	-1.698643746710931	0.2241295750965457	-0.4271691172661174	1.82394254877901	-1.369094526650875	-1.369094526650876	-0.2882657333773611	0.009494134195016199	-0.05511548651024207	0.2303367767064905	-1.039701320186602e-07	-2.46359249834978e-07	4.748308660301079e-07	1.656022801975308e-08	-1.110959833905547e-07	-2.302301941126365e-08	-1.002411907275285e-07
0.53	-0.1260918693704435	-0.06225446667129186	0.8138963551544616	0.9365615117611571	-0.3252652554387073	-0.1086107077258782	-0.8034865803354418	0.831586569779594	0.8315865697796531	-0.1060008437076721	-0.1745001306879353	0.07787090371576977	-0.006466167817025997	-0.1968082944856242	-0.1871089349658281	-0.341905063476737	1.446780151806047	-0.03535678300316661	0.4479993791265169	-0.7884628972186456	1.397197361085966	1.397197361085971	0.118380817145084	0.000597495545406504	0.236045437301978	0.03617869640438222	-0.3013049319617417	0.02508051794206343	-0.003901295705473037	-0.2188446989111196	0.1173038030956054	0.04716742427723268	0.3487072178172116	-7.68662617546626	-20.39978096210893	4.238159235937088	-9.669574216277795	-715.4983065348986	-73.54136705959769	-13.2885644297348	0.3361961396132843	0.6703495425160734	0.02542592477964272	-1.821934477948065	0.2109861074720769	-0.4740123469490191	1.872934660838291	-1.495520399223844	-1.495520399222842	-0.3049459387309958	-0.01308892042867949	-0.08919168350116828	0.2063061535812621	-1.20208247532367e-07	-1.376915851151082e-07	6.234043119479173e-07	4.618415018944249e-08	-1.211676233317131e-07	-8.481216097923437e-09	-1.048151794452707e-07
